<svg class="icon" viewBox="0 0 24 28" fill="none" xmlns="http://www.w3.org/2000/svg">
  <path fill-rule="evenodd" clip-rule="evenodd" d="M21.6083 1.84211H6.39088V5.52632H21.6083V1.84211ZM4.86914 0V7.36842H23.13V0H4.86914Z"/>
  <path d="M0 5.89458C0 5.08069 0.545045 4.4209 1.21739 4.4209H26.7826C27.455 4.4209 28 5.08069 28 5.89458V16.2104C28 17.0243 27.455 17.6841 26.7826 17.6841H1.21739C0.545044 17.6841 0 17.0243 0 16.2104V5.89458Z"/>
  <path d="M3.65158 7.36822C3.65158 8.18211 3.10653 8.8419 2.43419 8.8419C1.76184 8.8419 1.2168 8.18211 1.2168 7.36822C1.2168 6.55432 1.76184 5.89453 2.43419 5.89453C3.10653 5.89453 3.65158 6.55432 3.65158 7.36822Z" fill="white"/>
  <path d="M3.65234 13.2632H24.348V28H3.65234V13.2632Z" fill="white"/>
  <path fill-rule="evenodd" clip-rule="evenodd" d="M22.8263 15.1053H5.17408V26.1579H22.8263V15.1053ZM3.65234 13.2632V28H24.348V13.2632H3.65234Z"/>
</svg>
