<svg class="icon" viewBox="0 0 24 24" fill="none" xmlns="http://www.w3.org/2000/svg">
  <path fill-rule="evenodd" clip-rule="evenodd" d="M12 9.5a2.5 2.5 0 1 0 0-5 2.5 2.5 0 0 0 0 5Zm0 1.5a4 4 0 1 0 0-8 4 4 0 0 0 0 8ZM3.833 20.25c.23-1.074.933-2.285 2.1-3.312C7.363 15.68 9.438 14.75 12 14.75v-1.5c-2.938 0-5.363 1.07-7.058 2.562C3.265 17.287 2.25 19.228 2.25 21v.75H12v-1.5H3.833ZM20.167 20.25c-.23-1.074-.933-2.285-2.1-3.312-1.43-1.258-3.505-2.188-6.067-2.188v-1.5c2.938 0 5.363 1.07 7.058 2.562 1.677 1.475 2.692 3.416 2.692 5.188v.75H12v-1.5h8.167Z" />
</svg>
