<svg width="24" height="24" viewBox="0 0 24 24" fill="none" xmlns="http://www.w3.org/2000/svg">
  <path d="M18.6244 8.49985H15.9995V5H3.74995C2.78308 5 2 5.78308 2 6.74995V16.3746H3.74995C3.74995 17.8227 4.92677 18.9995 6.37485 18.9995C7.82294 18.9995 8.99975 17.8227 8.99975 16.3746H14.2496C14.2496 17.8227 15.4264 18.9995 16.8745 18.9995C18.3225 18.9995 19.4994 17.8227 19.4994 16.3746H21.2493V11.9998L18.6244 8.49985ZM6.37485 17.687C5.64861 17.687 5.0624 17.1008 5.0624 16.3746C5.0624 15.6483 5.64861 15.0621 6.37485 15.0621C7.10109 15.0621 7.6873 15.6483 7.6873 16.3746C7.6873 17.1008 7.10105 17.687 6.37485 17.687ZM16.8745 17.687C16.1482 17.687 15.562 17.1008 15.562 16.3746C15.562 15.6483 16.1482 15.0621 16.8745 15.0621C17.6007 15.0621 18.1869 15.6483 18.1869 16.3746C18.1869 17.1008 17.6007 17.687 16.8745 17.687ZM15.9995 11.9998V9.81235H18.1869L19.9062 11.9998H15.9995Z" fill="#005170"/>
</svg>
