<svg width="20" height="14" viewBox="0 0 20 14" fill="none" xmlns="http://www.w3.org/2000/svg">
    <path d="M16.9994 3.50034H14.3745V0.000488281H2.12495C1.15808 0.000488281 0.375 0.783571 0.375 1.75044V11.3751H2.12495C2.12495 12.8232 3.30177 14 4.74985 14C6.19794 14 7.37475 12.8232 7.37475 11.3751H12.6246C12.6246 12.8232 13.8014 14 15.2495 14C16.6975 14 17.8744 12.8232 17.8744 11.3751H19.6243V7.00024L16.9994 3.50034ZM4.74985 12.6875C4.02361 12.6875 3.4374 12.1013 3.4374 11.3751C3.4374 10.6488 4.02361 10.0626 4.74985 10.0626C5.47609 10.0626 6.0623 10.6488 6.0623 11.3751C6.0623 12.1013 5.47605 12.6875 4.74985 12.6875ZM15.2495 12.6875C14.5232 12.6875 13.937 12.1013 13.937 11.3751C13.937 10.6488 14.5232 10.0626 15.2495 10.0626C15.9757 10.0626 16.5619 10.6488 16.5619 11.3751C16.5619 12.1013 15.9757 12.6875 15.2495 12.6875ZM14.3745 7.00024V4.81284H16.5619L18.2812 7.00024H14.3745Z" fill="#005170"/>
</svg>
