<svg class="icon" viewBox="0 0 24 24" fill="none" xmlns="http://www.w3.org/2000/svg">
  <path d="M15 9a3 3 0 1 1-6 0 3 3 0 0 1 6 0Z" />
  <path fill-rule="evenodd" clip-rule="evenodd" d="M12 3.75A5.25 5.25 0 0 0 6.75 9c0 .654.311 1.66.87 2.884.545 1.195 1.278 2.5 2.02 3.718A70.44 70.44 0 0 0 12 19.206a72.937 72.937 0 0 0 2.36-3.604c.742-1.218 1.475-2.523 2.02-3.718.559-1.225.87-2.23.87-2.884 0-2.9-2.35-5.25-5.25-5.25Zm0 16.75-.605.443-.005-.007-.014-.018-.051-.071a55.782 55.782 0 0 1-.88-1.253 71.892 71.892 0 0 1-2.085-3.211c-.758-1.243-1.525-2.605-2.105-3.877C5.69 11.264 5.25 10.003 5.25 9a6.75 6.75 0 0 1 13.5 0c0 1.003-.439 2.264-1.005 3.506-.58 1.272-1.347 2.634-2.105 3.877a71.883 71.883 0 0 1-2.965 4.464l-.052.07-.013.02-.005.006L12 20.5Zm0 0 .605.443-.605.826-.605-.826L12 20.5Z" />
</svg>
