<svg class="icon" viewBox="0 0 24 24" fill="none" xmlns="http://www.w3.org/2000/svg">
  <path d="M11.263 15.102H12.809V16.737H11.263V15.102ZM9.36801 11.03C9.41001 9.95599 9.75401 9.19399 10.401 8.74599C10.809 8.45899 11.311 8.31599 11.906 8.31599C12.688 8.31599 13.337 8.51899 13.853 8.92599C14.372 9.33399 14.631 9.93699 14.631 10.736C14.631 11.226 14.519 11.639 14.294 11.975C14.162 12.179 13.91 12.439 13.536 12.755L13.168 13.066C12.967 13.236 12.834 13.434 12.768 13.66C12.726 13.804 12.704 14.026 12.7 14.328H11.3C11.32 13.69 11.376 13.251 11.466 13.01C11.556 12.765 11.788 12.484 12.162 12.167L12.541 11.845C12.665 11.743 12.765 11.632 12.841 11.511C12.98 11.304 13.049 11.076 13.049 10.827C13.049 10.54 12.971 10.28 12.816 10.047C12.663 9.80899 12.383 9.68999 11.975 9.68999C11.573 9.68999 11.288 9.83499 11.118 10.126C10.952 10.416 10.869 10.717 10.869 11.03H9.36901H9.36801Z" />
</svg>
