<svg class="icon" viewBox="0 0 24 24" fill="none" xmlns="http://www.w3.org/2000/svg">
  <path d="M12 6.25C13.2375 6.25 14.25 7.2625 14.25 8.5C14.25 9.7375 13.2375 10.75 12 10.75C10.7625 10.75 9.75 9.7375 9.75 8.5C9.75 7.2625 10.7625 6.25 12 6.25ZM12 16.5C15.0375 16.5 18.525 17.9513 18.75 18.75H5.25C5.50875 17.94 8.97375 16.5 12 16.5ZM12 4C9.51375 4 7.5 6.01375 7.5 8.5C7.5 10.9862 9.51375 13 12 13C14.4862 13 16.5 10.9862 16.5 8.5C16.5 6.01375 14.4862 4 12 4ZM12 14.25C8.99625 14.25 3 15.7575 3 18.75V21H21V18.75C21 15.7575 15.0037 14.25 12 14.25Z" />
</svg>
