<svg viewBox="0 0 38 24" fill="none" xmlns="http://www.w3.org/2000/svg">
  <g clip-path="url(#apple-pay-a)">
    <path d="M34.13 0H2.65a4.706 4.706 0 0 0-.704.061 2.38 2.38 0 0 0-.68.227c-.424.216-.769.56-.985.985-.11.214-.186.443-.226.68-.039.232-.06.468-.064.704V21.35c.004.236.025.472.064.704.04.237.117.466.226.68.216.424.561.77.986.985.213.11.442.186.679.227.233.037.468.058.704.06h32.187a4.75 4.75 0 0 0 .705-.06c.236-.041.466-.117.68-.227.424-.216.769-.56.984-.985.11-.214.187-.443.227-.68.038-.232.059-.468.061-.704V2.641a4.67 4.67 0 0 0-.061-.705A2.251 2.251 0 0 0 36.217.287a2.383 2.383 0 0 0-.68-.226A4.721 4.721 0 0 0 34.833 0h-.702Z" fill="#231F20"/>
    <path d="M34.13.8h.687a4 4 0 0 1 .584.05c.157.025.31.075.453.147a1.452 1.452 0 0 1 .779 1.089c.031.193.048.388.05.584v18.657a3.975 3.975 0 0 1-.05.587 1.452 1.452 0 0 1-.781 1.09 1.57 1.57 0 0 1-.453.147c-.193.03-.387.047-.582.05H2.67a4.07 4.07 0 0 1-.584-.05 1.572 1.572 0 0 1-.453-.148 1.452 1.452 0 0 1-.634-.634 1.569 1.569 0 0 1-.147-.453 3.957 3.957 0 0 1-.05-.584V2.67c.002-.196.018-.392.05-.586.025-.158.075-.31.147-.453.139-.273.36-.495.634-.634.143-.072.295-.122.453-.148.193-.03.388-.047.584-.05h31.46Z" fill="#fff"/>
    <path d="M9.854 8.106c.344-.412.514-.942.476-1.477a2.054 2.054 0 0 0-1.36.704 1.939 1.939 0 0 0-.488 1.42 1.714 1.714 0 0 0 1.372-.647ZM10.325 8.85c-.759-.045-1.404.431-1.764.431-.36 0-.906-.408-1.518-.396a2.235 2.235 0 0 0-1.902 1.155c-.815 1.404-.215 3.488.578 4.631.385.567.849 1.19 1.46 1.167.612-.023.804-.374 1.506-.374.703 0 .906.374 1.518.362.611-.011 1.03-.566 1.415-1.132.274-.401.487-.84.634-1.302a2.056 2.056 0 0 1-1.234-1.869 2.096 2.096 0 0 1 .997-1.755 2.167 2.167 0 0 0-1.688-.906M17.885 7.272c1.649 0 2.797 1.133 2.797 2.79 0 1.658-1.17 2.8-2.838 2.8H16.02v2.905H14.7V7.273h3.184Zm-1.866 4.487h1.513c1.148 0 1.811-.619 1.811-1.69s-.652-1.683-1.796-1.683H16.02v3.373ZM21.008 14.008c0-1.09.831-1.712 2.36-1.812l1.642-.1v-.469c0-.679-.453-1.064-1.26-1.064-.665 0-1.148.342-1.247.865h-1.19c.037-1.1 1.072-1.902 2.474-1.902 1.506 0 2.491.788 2.491 2.013v4.229H25.06v-1.02h-.03a2.172 2.172 0 0 1-1.95 1.083c-1.218 0-2.072-.73-2.072-1.823Zm4.004-.548v-.478l-1.465.095c-.825.052-1.255.36-1.255.906s.453.854 1.148.854c.895-.012 1.572-.582 1.572-1.377ZM27.397 18.039v-1.02c.13.015.26.023.39.024.582 0 .906-.247 1.112-.884l.117-.376-2.23-6.18h1.377l1.553 5.016h.03l1.553-5.016h1.343l-2.314 6.493c-.53 1.49-1.133 1.977-2.419 1.977-.171 0-.342-.01-.512-.034Z" fill="#231F20"/>
  </g>
  <defs>
    <clipPath id="apple-pay-a">
      <path fill="#fff" d="M0 0h37.487v24H0z"/>
    </clipPath>
  </defs>
</svg>
