<svg class="icon" viewBox="0 0 24 24" fill="none" xmlns="http://www.w3.org/2000/svg">
  <path d="M21.26 6.75657C20.5887 7.05496 19.8663 7.25623 19.1083 7.3463C19.8822 6.88297 20.4757 6.14906 20.7555 5.27355C20.0316 5.70315 19.2302 6.01488 18.3766 6.18316C17.6935 5.45517 16.7197 5 15.6422 5C13.5735 5 11.8963 6.67725 11.8963 8.7463C11.8963 9.03949 11.9293 9.32527 11.9934 9.59994C8.87984 9.44351 6.11913 7.95234 4.27138 5.68573C3.9489 6.23876 3.76431 6.88223 3.76431 7.56944C3.76431 8.86899 4.42557 10.0158 5.43081 10.6875C4.81699 10.6678 4.23913 10.4992 3.73391 10.2186C3.73354 10.2341 3.73354 10.2501 3.73354 10.266C3.73354 12.0808 5.02494 13.5946 6.73888 13.9393C6.42456 14.0245 6.09356 14.0705 5.75181 14.0705C5.51013 14.0705 5.2755 14.0472 5.0468 14.003C5.52385 15.4913 6.90717 16.5747 8.54624 16.6047C7.26411 17.6096 5.64913 18.2086 3.89367 18.2086C3.59158 18.2086 3.29319 18.1908 3 18.156C4.65835 19.2194 6.62731 19.8391 8.74269 19.8391C15.6337 19.8391 19.4015 14.1309 19.4015 9.18034C19.4015 9.01799 19.3982 8.85601 19.3911 8.69515C20.1228 8.16806 20.7581 7.50791 21.26 6.75657Z" />
</svg>
