<svg class="icon" viewBox="0 0 24 24" fill="none" xmlns="http://www.w3.org/2000/svg">
  <path d="M12.0003 3C7.02976 3 3 7.02919 3 12.0008C3 15.6868 5.21575 18.8523 8.38745 20.2438C8.36213 19.6147 8.38295 18.8602 8.54387 18.1777C8.71717 17.4457 9.70182 13.2719 9.70182 13.2719C9.70182 13.2719 9.41374 12.6974 9.41374 11.8489C9.41374 10.516 10.188 9.51952 11.1507 9.51952C11.9688 9.51952 12.3643 10.1334 12.3643 10.8699C12.3643 11.6925 11.8388 12.9236 11.5698 14.0635C11.3442 15.0178 12.0492 15.7965 12.9889 15.7965C14.6943 15.7965 15.8427 13.6072 15.8427 11.0117C15.8427 9.03957 14.5142 7.56372 12.0982 7.56372C9.36817 7.56372 7.66781 9.59886 7.66781 11.8731C7.66781 12.6575 7.89907 13.2106 8.26085 13.6387C8.42796 13.8357 8.45103 13.9139 8.3897 14.1401C8.34807 14.3066 8.24904 14.7044 8.2074 14.862C8.1472 15.091 7.96321 15.172 7.75671 15.087C6.49917 14.575 5.91401 13.1976 5.91401 11.6492C5.91401 9.09303 8.06955 6.02654 12.3469 6.02654C15.7825 6.02654 18.0455 8.51349 18.0455 11.1827C18.0455 14.7134 16.0812 17.3512 13.1881 17.3512C12.2158 17.3512 11.3015 16.8256 10.9897 16.2303C10.9897 16.2303 10.4665 18.3043 10.3568 18.7038C10.1655 19.3964 9.79185 20.0913 9.45088 20.632C10.2589 20.8711 11.1141 21.0011 12.0003 21.0011C16.9708 21.0011 21 16.9725 21 12.0008C21 7.02919 16.9708 3 12.0003 3Z" />
</svg>
